# Wavefront OBJ exported by MilkShape 3D

mtllib MCD_Knob.mtl

v 4.906943 0.000000 -1.308474
v 4.621173 7.961538 -1.231902
v 4.058074 8.538464 -1.081020
v 4.906943 0.000000 1.308474
v 4.621174 7.961538 1.231902
v 4.058074 8.538464 1.081020
v 3.598469 0.000000 3.574817
v 3.389271 7.961538 3.365620
v 2.977054 8.538464 2.953403
v 1.332125 0.000000 4.883292
v 1.255553 7.961538 4.597522
v 1.104671 8.538464 4.034423
v -1.284823 0.000000 4.883292
v -1.208251 7.961538 4.597523
v -1.057369 8.538464 4.034423
v -3.551166 0.000000 3.574817
v -3.341969 7.961538 3.365620
v -2.929751 8.538464 2.953403
v -4.859641 0.000000 1.308474
v -4.573871 7.961538 1.231902
v -4.010772 8.538464 1.081020
v -4.859641 0.000000 -1.308474
v -4.573872 7.961538 -1.231902
v -4.010772 8.538464 -1.081020
v -3.551166 0.000000 -3.574818
v -3.341969 7.961538 -3.365620
v -2.929751 8.538464 -2.953403
v -1.284823 0.000000 -4.883292
v -1.208251 7.961538 -4.597522
v -1.057369 8.538464 -4.034423
v 1.332125 0.000000 -4.883292
v 1.255553 7.961538 -4.597523
v 1.104671 8.538464 -4.034423
v 3.598469 0.000000 -3.574817
v 3.389271 7.961538 -3.365620
v 2.977054 8.538464 -2.953403
v 0.023651 8.538464 -0.000000
# 37 vertices

vt 0.515625 0.627975
vt 0.265625 0.496094
vt 0.515625 0.364212
vt 0.609375 0.007813
vt 0.609375 0.996094
vt 0.869564 0.996094
vt 0.869141 0.007813
vt 0.611328 0.218750
vt 0.611328 0.109375
vt 0.863281 0.218750
vt 0.861719 0.109375
vt 0.448638 0.135787
vt 0.863281 0.222656
vt 0.863233 0.113281
vt 0.609375 0.113281
vt 0.608378 0.222656
vt 0.332612 0.003906
vt 0.610905 0.996094
vt 0.859137 0.226563
vt 0.861542 0.117188
vt 0.607679 0.226563
vt 0.607679 0.117188
vt 0.198638 0.003906
vt 0.347656 0.796875
vt 0.342856 0.042969
vt 0.183594 0.796875
vt 0.188394 0.042970
vt 0.343755 0.020801
vt 0.334235 0.112375
vt 0.197820 0.112375
vt 0.188300 0.020801
vt 0.082612 0.135787
vt 0.611025 0.007813
vt 0.858419 0.222656
vt 0.859375 0.113281
vt 0.015625 0.364212
vt 0.015625 0.627975
vt 0.865234 0.222656
vt 0.865234 0.113281
vt 0.613281 0.222656
vt 0.614843 0.113281
vt 0.082612 0.856400
vt 0.198638 0.988281
vt 0.867611 0.996094
vt 0.607422 0.218750
vt 0.607031 0.109375
vt 0.859375 0.218750
vt 0.859375 0.109375
vt 0.332612 0.988281
vt 0.448638 0.856400
vt 0.615234 0.007813
vt 0.619242 0.996094
vt 0.845703 0.996094
vt 0.855772 0.007813
vt 0.604472 0.230469
vt 0.605469 0.121094
vt 0.859375 0.230469
vt 0.859327 0.121094
# 58 texture coordinates

vn 0.482598 0.866243 -0.129312
vn 0.000000 1.000000 0.000000
vn 0.364112 0.926231 0.097563
vn 0.965260 0.037134 -0.258640
vn 0.883049 0.405265 -0.236612
vn 0.883048 0.405266 0.236612
vn 0.965260 0.037134 0.258641
vn 0.353286 0.866244 0.353286
vn 0.706619 0.037134 0.706619
vn 0.646436 0.405266 0.646436
vn 0.097564 0.926231 0.364112
vn 0.236612 0.405265 0.883048
vn 0.258641 0.037134 0.965260
vn -0.129312 0.866244 0.482598
vn -0.258641 0.037134 0.965260
vn -0.236612 0.405266 0.883048
vn -0.266548 0.926231 0.266548
vn -0.646436 0.405266 0.646436
vn -0.706619 0.037134 0.706619
vn -0.482598 0.866243 0.129312
vn -0.965260 0.037134 0.258641
vn -0.883049 0.405265 0.236612
vn -0.364112 0.926231 -0.097563
vn -0.883048 0.405265 -0.236612
vn -0.965260 0.037134 -0.258641
vn -0.353286 0.866243 -0.353286
vn -0.706619 0.037134 -0.706619
vn -0.646436 0.405265 -0.646436
vn -0.097564 0.926231 -0.364112
vn -0.236612 0.405265 -0.883049
vn -0.258641 0.037134 -0.965260
vn 0.129312 0.866243 -0.482598
vn 0.258641 0.037134 -0.965260
vn 0.236612 0.405265 -0.883049
vn 0.266548 0.926231 -0.266548
vn 0.646436 0.405265 -0.646436
vn 0.706619 0.037134 -0.706619
# 37 normals

g Cylinder03
usemtl color_cccccc
s 1
f 3/1/1 37/2/2 6/3/3
f 1/4/4 2/5/5 5/6/6
f 1/4/4 5/6/6 4/7/7
f 2/8/5 3/9/1 5/10/6
f 3/9/1 6/11/3 5/10/6
f 6/3/3 37/2/2 9/12/8
f 4/4/7 5/5/6 7/7/9
f 5/5/6 8/6/10 7/7/9
f 5/13/6 6/14/3 9/15/8
f 5/13/6 9/15/8 8/16/10
f 9/12/8 37/2/2 12/17/11
f 7/4/9 8/18/10 11/6/12
f 7/4/9 11/6/12 10/7/13
f 8/19/10 9/20/8 11/21/12
f 9/20/8 12/22/11 11/21/12
f 12/17/11 37/2/2 15/23/14
f 10/24/13 11/25/12 13/26/15
f 11/25/12 14/27/16 13/26/15
f 11/28/12 12/29/11 15/30/14
f 11/28/12 15/30/14 14/31/16
f 15/23/14 37/2/2 18/32/17
f 13/33/15 14/5/16 17/6/18
f 13/33/15 17/6/18 16/7/19
f 14/34/16 15/35/14 17/16/18
f 15/35/14 18/15/17 17/16/18
f 18/32/17 37/2/2 21/36/20
f 16/7/19 17/6/18 19/4/21
f 17/6/18 20/5/22 19/4/21
f 17/10/18 18/11/17 21/9/20
f 17/10/18 21/9/20 20/8/22
f 21/36/20 37/2/2 24/37/23
f 19/7/21 20/6/22 23/5/24
f 19/7/21 23/5/24 22/4/25
f 20/38/22 21/39/20 23/40/24
f 21/39/20 24/41/23 23/40/24
f 24/37/23 37/2/2 27/42/26
f 22/7/25 23/6/24 25/33/27
f 23/6/24 26/5/28 25/33/27
f 23/16/24 24/15/23 27/35/26
f 23/16/24 27/35/26 26/34/28
f 27/42/26 37/2/2 30/43/29
f 25/7/27 26/44/28 29/5/30
f 25/7/27 29/5/30 28/4/31
f 26/45/28 27/46/26 29/47/30
f 27/46/26 30/48/29 29/47/30
f 30/43/29 37/2/2 33/49/32
f 28/7/31 29/6/30 31/4/33
f 29/6/30 32/18/34 31/4/33
f 29/21/30 30/22/29 33/20/32
f 29/21/30 33/20/32 32/19/34
f 33/49/32 37/2/2 36/50/35
f 31/51/33 32/52/34 35/53/36
f 31/51/33 35/53/36 34/54/37
f 32/55/34 33/56/32 35/57/36
f 33/56/32 36/58/35 35/57/36
f 36/50/35 37/2/2 3/1/1
f 34/4/37 35/5/36 1/7/4
f 35/5/36 2/6/5 1/7/4
f 35/40/36 36/41/35 3/39/1
f 35/40/36 3/39/1 2/38/5
# 60 triangles in group

# 60 triangles total

